<svg width="80" height="80" viewBox="0 0 80 80" fill="none" xmlns="http://www.w3.org/2000/svg">
<g id="Group 35">
<circle id="Ellipse 3" cx="40" cy="40" r="39.5" fill="white" stroke="#CFCFCF"/>
<g id="Group 322">
<path id="Icon" d="M24 39.9056L39.4276 47.6194C39.6375 47.7243 39.7424 47.7768 39.8525 47.7974C39.95 47.8157 40.05 47.8157 40.1475 47.7974C40.2576 47.7768 40.3625 47.7243 40.5724 47.6194L56 39.9056M24 47.9056L39.4276 55.6194C39.6375 55.7243 39.7424 55.7768 39.8525 55.7974C39.95 55.8157 40.05 55.8157 40.1475 55.7974C40.2576 55.7768 40.3625 55.7243 40.5724 55.6194L56 47.9056" stroke="#440BD4" stroke-width="2" stroke-linecap="round" stroke-linejoin="round"/>
<path id="Icon_2" d="M40.5724 24.1918C40.3625 24.0868 40.2576 24.0344 40.1475 24.0137C40.05 23.9954 39.95 23.9954 39.8525 24.0137C39.7424 24.0344 39.6375 24.0868 39.4276 24.1918L24 31.9056L39.4276 39.6194C39.6375 39.7243 39.7424 39.7768 39.8525 39.7974C39.95 39.8157 40.05 39.8157 40.1475 39.7974C40.2576 39.7768 40.3625 39.7243 40.5724 39.6194L56 31.9056L40.5724 24.1918Z" stroke="#440BD4" stroke-width="2" stroke-linecap="round" stroke-linejoin="round"/>
</g>
</g>
</svg>
