<svg width="80" height="80" viewBox="0 0 80 80" fill="none" xmlns="http://www.w3.org/2000/svg">
<g id="Group 31">
<circle id="Ellipse 3" cx="40" cy="40" r="39.5" fill="white" stroke="#CFCFCF"/>
<g id="Group 318">
<path id="Icon" d="M51.6 37.6V31.68C51.6 28.9917 51.6 27.6476 51.0768 26.6208C50.6166 25.7177 49.8823 24.9834 48.9792 24.5232C47.9524 24 46.6083 24 43.92 24H33.68C30.9917 24 29.6476 24 28.6208 24.5232C27.7177 24.9834 26.9834 25.7177 26.5232 26.6208C26 27.6476 26 28.9917 26 31.68V48.32C26 51.0083 26 52.3524 26.5232 53.3792C26.9834 54.2823 27.7177 55.0166 28.6208 55.4768C29.6476 56 30.9917 56 33.68 56H38.8M42 38.4H32.4M35.6 44.8H32.4M45.2 32H32.4" stroke="#440BD4" stroke-width="2" stroke-linecap="round" stroke-linejoin="round"/>
<path id="Icon_2" d="M48.3996 54.4V44.8M43.5996 49.6H53.1996" stroke="#440BD4" stroke-width="2" stroke-linecap="round" stroke-linejoin="round"/>
</g>
</g>
</svg>
