<svg width="80" height="80" viewBox="0 0 80 80" fill="none" xmlns="http://www.w3.org/2000/svg">
<g id="Group 33">
<circle id="Ellipse 3" cx="40" cy="40" r="39.5" fill="white" stroke="#CFCFCF"/>
<g id="Group 320">
<path id="Icon" d="M51.6002 51.2V48.4C51.6002 46.8536 50.3466 45.6 48.8002 45.6C47.2538 45.6 46.0002 46.8536 46.0002 48.4V51.2M45.7602 57.6H51.8402C52.7363 57.6 53.1843 57.6 53.5266 57.4256C53.8276 57.2722 54.0724 57.0275 54.2258 56.7264C54.4002 56.3842 54.4002 55.9361 54.4002 55.04V53.76C54.4002 52.864 54.4002 52.4159 54.2258 52.0737C54.0724 51.7726 53.8276 51.5278 53.5266 51.3744C53.1843 51.2 52.7363 51.2 51.8402 51.2H45.7602C44.8641 51.2 44.4161 51.2 44.0738 51.3744C43.7728 51.5278 43.528 51.7726 43.3746 52.0737C43.2002 52.4159 43.2002 52.864 43.2002 53.76V55.04C43.2002 55.9361 43.2002 56.3842 43.3746 56.7264C43.528 57.0275 43.7728 57.2722 44.0738 57.4256C44.4161 57.6 44.8641 57.6 45.7602 57.6Z" stroke="#440BD4" stroke-width="2" stroke-linecap="round" stroke-linejoin="round"/>
<path id="Icon_2" d="M56 41.6V37.12C56 35.3278 56 34.4317 55.6512 33.7472C55.3444 33.1451 54.8549 32.6556 54.2528 32.3488C53.5683 32 52.6722 32 50.88 32H29.12C27.3278 32 26.4317 32 25.7472 32.3488C25.1451 32.6556 24.6556 33.1451 24.3488 33.7472C24 34.4317 24 35.3278 24 37.12V42.88C24 44.6722 24 45.5683 24.3488 46.2528C24.6556 46.8549 25.1451 47.3444 25.7472 47.6512C26.4317 48 27.3278 48 29.12 48H38.4M40 40H40.008M48 40H48.008M32 40H32.008M40.4 40C40.4 40.2209 40.2209 40.4 40 40.4C39.7791 40.4 39.6 40.2209 39.6 40C39.6 39.7791 39.7791 39.6 40 39.6C40.2209 39.6 40.4 39.7791 40.4 40ZM48.4 40C48.4 40.2209 48.2209 40.4 48 40.4C47.7791 40.4 47.6 40.2209 47.6 40C47.6 39.7791 47.7791 39.6 48 39.6C48.2209 39.6 48.4 39.7791 48.4 40ZM32.4 40C32.4 40.2209 32.2209 40.4 32 40.4C31.7791 40.4 31.6 40.2209 31.6 40C31.6 39.7791 31.7791 39.6 32 39.6C32.2209 39.6 32.4 39.7791 32.4 40Z" stroke="#440BD4" stroke-width="2" stroke-linecap="round" stroke-linejoin="round"/>
</g>
</g>
</svg>
