<svg width="80" height="80" viewBox="0 0 80 80" fill="none" xmlns="http://www.w3.org/2000/svg">
<g id="Group 19">
<circle id="Ellipse 3" cx="40" cy="40" r="39.5" fill="white" stroke="#CFCFCF"/>
<g id="Group 324">
<path id="Icon" d="M41.6 28.2C41.6 29.9673 37.6601 31.4 32.8 31.4C27.9399 31.4 24 29.9673 24 28.2M41.6 28.2C41.6 26.4327 37.6601 25 32.8 25C27.9399 25 24 26.4327 24 28.2M41.6 28.2V42.5992C40.5953 43.9364 40 45.5987 40 47.4C40 48.7206 40.32 49.9664 40.8866 51.0642C39.5387 52.2028 36.4254 53 32.8 53C27.9399 53 24 51.5673 24 49.8V28.2M24 42.6C24 44.3673 27.9399 45.8 32.8 45.8C36.3024 45.8 39.3269 45.056 40.7434 43.9788M41.6 35.4C41.6 37.1673 37.6601 38.6 32.8 38.6C27.9399 38.6 24 37.1673 24 35.4" stroke="#440BD4" stroke-width="2" stroke-linecap="round" stroke-linejoin="round"/>
<path id="Icon_2" d="M48 55.3999C52.4183 55.3999 56 51.8182 56 47.3999C56 42.9816 52.4183 39.3999 48 39.3999C43.5817 39.3999 40 42.9816 40 47.3999C40 51.8182 43.5817 55.3999 48 55.3999Z" stroke="#440BD4" stroke-width="2" stroke-linecap="round" stroke-linejoin="round"/>
</g>
</g>
</svg>
