<svg width="80" height="80" viewBox="0 0 80 80" fill="none" xmlns="http://www.w3.org/2000/svg">
<g id="Group 19">
<circle id="Ellipse 3" cx="40" cy="40" r="39.5" fill="white" stroke="#CFCFCF"/>
<g id="Group 317">
<path id="Icon" d="M56 35.6H24M24 33.68L24 47.12C24 49.8082 24 51.1524 24.5232 52.1792C24.9834 53.0823 25.7177 53.8166 26.6208 54.2768C27.6476 54.8 28.9917 54.8 31.68 54.8H48.32C51.0083 54.8 52.3524 54.8 53.3792 54.2768C54.2823 53.8166 55.0166 53.0823 55.4768 52.1792C56 51.1524 56 49.8083 56 47.12V33.68C56 30.9917 56 29.6476 55.4768 28.6208C55.0166 27.7177 54.2823 26.9834 53.3792 26.5232C52.3524 26 51.0083 26 48.32 26L31.68 26C28.9917 26 27.6476 26 26.6208 26.5232C25.7177 26.9834 24.9834 27.7177 24.5232 28.6208C24 29.6476 24 30.9917 24 33.68Z" stroke="#440BD4" stroke-width="2" stroke-linecap="round" stroke-linejoin="round"/>
<path id="Icon_2" d="M43.1998 49.2L47.1998 45.2L43.1998 41.2M36.7998 41.2L32.7998 45.2L36.7998 49.2" stroke="#440BD4" stroke-width="2" stroke-linecap="round" stroke-linejoin="round"/>
</g>
</g>
</svg>
