<svg width="80" height="80" viewBox="0 0 80 80" fill="none" xmlns="http://www.w3.org/2000/svg">
<g id="Group 34">
<circle id="Ellipse 3" cx="40" cy="40" r="39.5" fill="white" stroke="#CFCFCF"/>
<g id="Group 321">
<path id="Icon" d="M53.4737 57.6316V45.8421M40.0001 57.6316V40.7895M26.5264 57.6316L26.5264 50.8948" stroke="#440BD4" stroke-width="2" stroke-linecap="round" stroke-linejoin="round"/>
<path id="Icon_2" d="M42.3691 32.4147L51.0739 35.679M37.9769 33.0437L28.5478 40.1155M55.2601 34.7926C56.2466 35.7792 56.2466 37.3787 55.2601 38.3653C54.2735 39.3519 52.6739 39.3519 51.6873 38.3653C50.7007 37.3787 50.7007 35.7792 51.6873 34.7926C52.6739 33.806 54.2735 33.806 55.2601 34.7926ZM28.3127 39.8452C29.2993 40.8318 29.2993 42.4314 28.3127 43.418C27.3261 44.4045 25.7265 44.4045 24.7399 43.418C23.7534 42.4314 23.7534 40.8318 24.7399 39.8452C25.7265 38.8586 27.3261 38.8586 28.3127 39.8452ZM41.7864 29.7399C42.773 30.7265 42.773 32.3261 41.7864 33.3127C40.7998 34.2993 39.2002 34.2993 38.2136 33.3127C37.227 32.3261 37.227 30.7265 38.2136 29.7399C39.2002 28.7534 40.7998 28.7534 41.7864 29.7399Z" stroke="#440BD4" stroke-width="2" stroke-linecap="round" stroke-linejoin="round"/>
</g>
</g>
</svg>
