<svg width="15" height="28" viewBox="0 0 15 28" fill="none" xmlns="http://www.w3.org/2000/svg">
<path id="Vector" fill-rule="evenodd" clip-rule="evenodd" d="M11.964 4.7207C12.8512 4.69366 13.7384 4.7207 14.6396 4.7207H15V0.205433C14.5287 0.164877 14.0296 0.0972827 13.5305 0.0702452C12.6155 0.0296889 11.7006 -0.010867 10.7856 0.00265176C9.3854 0.0296893 8.06839 0.367658 6.91774 1.16527C5.60074 2.09806 4.86599 3.39586 4.58873 4.937C4.47782 5.57238 4.45009 6.22128 4.42237 6.87018C4.39464 7.88409 4.42237 8.898 4.42237 9.9119V10.2904H0V15.3329H4.4085V28H9.78743V15.3464H14.1821C14.4039 13.6701 14.6257 12.0073 14.8614 10.2769C14.5148 10.2769 14.1959 10.2769 13.8771 10.2769C12.6294 10.2769 9.75971 10.2769 9.75971 10.2769C9.75971 10.2769 9.7597 7.77594 9.80129 6.69444C9.84288 5.20737 10.744 4.76125 11.964 4.70718V4.7207Z" fill="#701EDC"/>
</svg>
