<svg width="146" height="28" viewBox="0 0 146 28" fill="none" xmlns="http://www.w3.org/2000/svg">
<g id="Group">
<path id="Vector" fill-rule="evenodd" clip-rule="evenodd" d="M13.4641 8.3525C13.4513 7.83869 13.4345 7.40132 13.4309 6.96378C13.4234 6.07858 13.6497 5.24892 14.0073 4.44332C14.4467 3.45289 15.1156 2.64712 15.9593 1.98805C16.4605 1.59624 17.0214 1.29812 17.6221 1.06756C18.3189 0.800134 19.0399 0.683194 19.7756 0.668319C20.909 0.645058 21.9875 0.879254 22.9933 1.42708C24.042 1.99802 24.8761 2.79334 25.4872 3.81067C25.7166 4.19235 25.8752 4.61865 26.047 5.03245C26.4335 5.96338 26.4526 6.94811 26.3621 7.92304C26.2729 8.88498 25.9389 9.78648 25.411 10.6062C25.1025 11.0852 24.7464 11.5246 24.3218 11.9082C24.1451 12.0682 24.1689 12.1256 24.4019 12.2152C25.6963 12.7141 26.6326 13.5863 27.2089 14.8562C27.596 15.7101 27.6478 16.6048 27.5517 17.5047C27.4551 18.4076 27.0704 19.208 26.4862 19.9112C25.8195 20.713 24.9769 21.2349 23.9789 21.514C23.3468 21.691 22.6938 21.7319 22.0554 21.6321C21.1772 21.4944 20.3604 21.1673 19.6657 20.5861C19.6094 20.5383 19.5383 20.5091 19.4552 20.4603C18.4652 23.3696 16.5829 25.4353 13.7638 26.5956C11.6358 27.4717 9.4214 27.5717 7.24385 26.8737C2.31832 25.2935 0.0193366 20.8352 0.385375 16.6478C0.516307 15.1513 0.983512 13.7471 1.7767 12.4589C2.57606 11.1613 3.6156 10.0987 4.90228 9.28612C6.17692 8.48115 7.56872 8.01023 9.07119 7.83949C10.5751 7.66827 12.0299 7.88712 13.4641 8.3525ZM5.21259 17.5379C5.14641 20.2029 7.36528 22.445 10.0838 22.475C11.4645 22.4904 12.6667 21.972 13.6376 20.9887C14.5721 20.0424 15.0488 18.8701 15.0499 17.5501C15.0511 16.2312 14.5836 15.0524 13.6486 14.1088C12.6958 13.1475 11.5266 12.6301 10.1565 12.6157C7.41816 12.5873 5.14055 14.892 5.21259 17.5379ZM19.9002 3.87381C18.1094 3.80497 16.6206 5.44387 16.6222 7.1293C16.6241 8.93562 18.1474 10.4392 19.8961 10.4402C21.6886 10.4408 23.2006 8.96505 23.2023 7.13547C23.2039 5.38422 21.7052 3.80497 19.9002 3.87381ZM25.2212 16.7901C25.2313 15.5472 24.1975 14.3095 22.7235 14.324C21.3303 14.3373 20.2482 15.4226 20.2618 16.823C20.2756 18.2546 21.4275 19.2759 22.7397 19.2797C24.1055 19.2833 25.2421 18.1084 25.2212 16.7901Z" fill="#EF3D2A"/>
<path id="Vector_2" fill-rule="evenodd" clip-rule="evenodd" d="M86.907 10.4554C86.9477 9.7647 86.9212 9.11179 86.926 8.46C86.931 7.81438 86.9269 7.1686 86.9269 6.53247C87.178 6.46427 89.2641 6.45303 89.6181 6.51379C89.6233 6.63058 89.6339 6.7548 89.6339 6.87901C89.635 9.64586 89.638 12.4127 89.6314 15.1795C89.6304 15.619 89.5946 16.0592 89.5577 16.4977C89.5045 17.1313 89.2756 17.7179 88.9894 18.2738C88.5768 19.0756 87.9942 19.7459 87.273 20.2936C86.5838 20.8174 85.8111 21.1726 84.9725 21.3543C84.2516 21.5104 83.5149 21.5165 82.7781 21.4115C81.7463 21.2641 80.8257 20.8556 80.0111 20.2217C79.2431 19.6244 78.6633 18.8705 78.2533 17.982C78.0259 17.4894 77.8993 16.9697 77.7923 16.4467C77.7264 16.1236 77.7296 15.7834 77.731 15.4503C77.7345 14.7718 77.8534 14.1067 78.088 13.472C78.4327 12.5404 78.977 11.7383 79.7213 11.0718C80.3735 10.4882 81.123 10.0771 81.9488 9.81438C82.3087 9.69998 82.694 9.64064 83.0723 9.61342C83.5297 9.5805 83.9934 9.58288 84.4509 9.61595C84.9793 9.65409 85.4868 9.81043 85.9732 10.0198C86.2062 10.1199 86.4292 10.2427 86.6579 10.3529C86.7246 10.3856 86.7958 10.4098 86.907 10.4554ZM86.9339 15.4109C86.92 15.2441 86.9326 14.9719 86.8682 14.7191C86.6874 14.0087 86.3709 13.3732 85.8274 12.8518C84.8741 11.9381 83.4822 11.687 82.3019 12.317C81.0896 12.9643 80.5398 14.0437 80.4278 15.3748C80.4033 15.6679 80.45 15.956 80.5171 16.2469C80.6044 16.6221 80.7177 16.9808 80.9014 17.3205C81.2228 17.9146 81.6816 18.3836 82.2723 18.693C82.8256 18.9824 83.4234 19.0875 84.0637 19.005C84.6696 18.927 85.1969 18.7064 85.6523 18.32C86.5167 17.5862 86.9314 16.6406 86.9339 15.4109Z" fill="white"/>
<path id="Vector_3" fill-rule="evenodd" clip-rule="evenodd" d="M145.664 16.6192C142.73 16.6192 139.809 16.6192 136.878 16.6192C136.874 16.6974 136.856 16.7507 136.872 16.7914C137.177 17.5718 137.655 18.2058 138.413 18.6018C139.055 18.9376 139.743 19.0019 140.441 18.8892C140.997 18.799 141.504 18.5558 141.919 18.1611C142.063 18.0231 142.211 17.9619 142.413 17.9648C143.248 17.9741 144.082 17.9684 144.916 17.9684C145.012 17.9684 145.108 17.9684 145.215 17.9684C144.433 20.0344 141.874 21.9232 138.795 21.35C135.283 20.6968 133.509 17.5896 133.952 14.5988C134.212 12.8466 135.13 11.4473 136.632 10.4751C137.976 9.60536 139.46 9.3248 141.02 9.64207C144.518 10.354 146.325 13.6696 145.664 16.6192ZM142.824 14.1894C142.441 12.7556 141.049 11.7915 139.411 12.0024C138.656 12.0997 137.99 12.4187 137.491 13.0235C137.208 13.3669 136.972 13.734 136.865 14.1896C138.868 14.1894 140.834 14.1894 142.824 14.1894Z" fill="white"/>
<path id="Vector_4" fill-rule="evenodd" clip-rule="evenodd" d="M112.379 21.4652C111.465 21.4652 110.606 21.4652 109.718 21.4652C109.712 21.3317 109.703 21.2176 109.703 21.1033C109.702 19.2881 109.712 17.4728 109.699 15.6568C109.692 14.7085 109.415 13.8407 108.767 13.125C108.061 12.3459 107.188 11.96 106.123 12.0704C105.085 12.1776 104.321 12.7151 103.765 13.5761C103.349 14.2197 103.168 14.9283 103.169 15.6904C103.171 17.4859 103.169 19.2813 103.169 21.0778C103.169 21.1945 103.169 21.3111 103.169 21.4199C102.94 21.5 100.843 21.5155 100.523 21.4473C100.456 21.2269 100.446 6.81051 100.515 6.49561C101.381 6.49561 102.25 6.49561 103.162 6.49561C103.165 6.82475 103.167 7.15389 103.169 7.48303C103.17 7.8166 103.169 8.15017 103.169 8.48406C103.169 8.80751 103.169 9.13158 103.169 9.4555C103.169 9.78765 103.169 10.1198 103.169 10.4624C103.43 10.4831 103.598 10.322 103.779 10.2277C104.27 9.97105 104.79 9.81487 105.326 9.70157C105.749 9.61169 106.18 9.59602 106.613 9.60662C107.737 9.63432 108.765 9.96425 109.704 10.576C110.698 11.2242 111.434 12.1005 111.905 13.1829C112.194 13.8476 112.379 14.5499 112.379 15.2862C112.38 17.2296 112.379 19.1723 112.379 21.1153C112.379 21.2217 112.379 21.3277 112.379 21.4652Z" fill="white"/>
<path id="Vector_5" fill-rule="evenodd" clip-rule="evenodd" d="M125.683 21.4663C124.753 21.4663 123.885 21.4663 122.975 21.4663C122.975 21.1708 122.975 20.893 122.975 20.5602C122.747 20.6713 122.573 20.7518 122.404 20.8406C121.88 21.1164 121.326 21.2933 120.743 21.3941C119.999 21.5226 119.255 21.5104 118.52 21.3688C117.774 21.2257 117.077 20.9347 116.444 20.5113C115.54 19.9062 114.838 19.1175 114.362 18.1367C114.125 17.6514 113.961 17.1436 113.861 16.611C113.772 16.1334 113.755 15.6555 113.775 15.1754C113.801 14.5448 113.938 13.9345 114.17 13.3471C114.644 12.1465 115.428 11.1961 116.512 10.4998C116.915 10.2418 117.348 10.0455 117.804 9.88381C118.414 9.66734 119.04 9.58268 119.675 9.57255C120.474 9.56005 121.252 9.69835 121.995 10.0087C122.982 10.421 123.805 11.0467 124.454 11.8952C124.915 12.4978 125.247 13.1619 125.457 13.8981C125.637 14.5296 125.684 15.1659 125.684 15.8131C125.683 17.5598 125.683 19.3058 125.683 21.0528C125.683 21.1781 125.683 21.3041 125.683 21.4663ZM122.98 15.5835C122.969 14.8404 122.796 14.2321 122.482 13.6492C121.859 12.493 120.39 11.681 118.98 12.0715C118.272 12.2679 117.7 12.645 117.254 13.2164C116.832 13.7587 116.581 14.3685 116.504 15.0627C116.414 15.8804 116.541 16.6519 116.952 17.3518C117.487 18.2613 118.248 18.8657 119.343 19.0025C120.212 19.111 120.981 18.8937 121.646 18.3543C122.543 17.6245 122.95 16.6462 122.98 15.5835Z" fill="white"/>
<path id="Vector_6" fill-rule="evenodd" clip-rule="evenodd" d="M63.0447 15.503C63.1473 18.7254 60.4033 21.4892 57.1081 21.4873C53.841 21.4853 51.1361 18.8055 51.1426 15.5188C51.1489 12.3019 53.7452 9.57512 57.095 9.56594C60.4052 9.55708 63.1136 12.2807 63.0447 15.503ZM60.3787 15.4512C60.3572 15.3131 60.3127 15.0927 60.2898 14.8703C60.2353 14.3399 60.0182 13.8739 59.7318 13.4362C59.2233 12.6599 58.5025 12.1812 57.5986 12.0076C56.9552 11.884 56.3151 11.9897 55.7417 12.2975C54.5359 12.9444 53.9428 14.0049 53.85 15.3438C53.7997 16.0711 53.9837 16.7632 54.3625 17.3919C54.8942 18.2749 55.634 18.8518 56.6862 18.9966C57.5286 19.1128 58.2841 18.9177 58.951 18.4116C59.8966 17.694 60.3051 16.699 60.3787 15.4512Z" fill="white"/>
<path id="Vector_7" fill-rule="evenodd" clip-rule="evenodd" d="M64.4336 9.54755C65.3454 9.54755 66.2146 9.54755 67.114 9.54755C67.1214 9.68585 67.1333 9.80991 67.1333 9.93397C67.1344 11.7104 67.1262 13.4865 67.1387 15.2631C67.1427 15.8405 67.197 16.4169 67.4379 16.9573C67.8144 17.8022 68.3841 18.4643 69.2589 18.8089C70.2551 19.2018 71.215 19.1032 72.1122 18.5089C72.5867 18.1949 72.9478 17.777 73.2128 17.2722C73.5053 16.716 73.6492 16.1323 73.6451 15.499C73.6327 13.6441 73.6406 11.7892 73.6406 9.93429C73.6406 9.81766 73.6406 9.70104 73.6406 9.59075C73.8618 9.51827 75.9632 9.49849 76.3752 9.56274C76.3809 9.64107 76.3923 9.72604 76.3923 9.8107C76.3934 11.7343 76.4255 13.6585 76.3799 15.5813C76.3555 16.622 76.0997 17.6257 75.5463 18.5415C75.0346 19.3881 74.3765 20.0799 73.5396 20.5985C72.8858 21.0034 72.1798 21.271 71.4138 21.3976C70.6571 21.5224 69.9033 21.5136 69.1612 21.3639C68.4205 21.214 67.7294 20.9159 67.0952 20.4909C66.0911 19.8172 65.366 18.917 64.8856 17.8172C64.7731 17.5591 64.7064 17.2803 64.6284 17.0083C64.4431 16.3611 64.4282 15.6974 64.4309 15.03C64.4384 13.3319 64.4333 11.6343 64.4333 9.93619C64.4336 9.81925 64.4336 9.70231 64.4336 9.54755Z" fill="white"/>
<path id="Vector_8" fill-rule="evenodd" clip-rule="evenodd" d="M42.7393 17.4489C43.709 17.4489 44.6599 17.4489 45.6534 17.4489C45.3652 18.389 44.8528 19.1612 44.1688 19.813C43.0066 20.921 41.6151 21.4826 39.9999 21.4823C36.69 21.4815 33.9734 18.7721 34.0606 15.3623C34.1419 12.1937 36.6891 9.58414 40.0235 9.56673C43.0614 9.55075 45.2134 11.8334 45.6249 13.6346C45.5361 13.6403 45.4507 13.6501 45.3654 13.6505C44.5996 13.6514 43.8336 13.6473 43.0677 13.6539C42.8864 13.6555 42.7694 13.6142 42.6597 13.4451C42.2479 12.8108 41.6779 12.3624 40.9552 12.1226C40.3203 11.9122 39.679 11.9085 39.0516 12.137C37.9169 12.5505 37.1986 13.3739 36.9144 14.5265C36.5412 16.0412 36.9206 17.3612 38.1376 18.383C38.5375 18.7186 39.0147 18.9134 39.5442 18.9941C40.083 19.0759 40.5971 19.0238 41.1017 18.8381C41.7584 18.5955 42.2612 18.1599 42.6489 17.5839C42.6763 17.543 42.7034 17.5025 42.7393 17.4489Z" fill="white"/>
<path id="Vector_9" fill-rule="evenodd" clip-rule="evenodd" d="M91.0264 17.6439C91.1022 17.631 91.1397 17.6196 91.1772 17.6196C91.9529 17.618 92.7286 17.6161 93.5043 17.6186C93.7204 17.6192 93.7227 17.6349 93.8022 17.8596C93.9035 18.1463 94.0278 18.4177 94.2409 18.647C94.8663 19.3222 95.9416 19.183 96.3499 18.3429C96.5516 17.9269 96.3787 17.3442 95.9758 17.0969C95.7029 16.9292 95.4062 16.7929 95.1084 16.6719C94.4303 16.397 93.7232 16.1943 93.0749 15.845C92.2643 15.4083 91.6923 14.7603 91.5157 13.8575C91.175 12.1134 91.8783 10.6769 93.513 9.90136C94.1219 9.61257 94.7656 9.56541 95.4291 9.58788C96.0345 9.60814 96.5901 9.77049 97.0964 10.0852C97.9276 10.6022 98.4912 11.3288 98.7239 12.2905C98.7607 12.4418 98.7632 12.6014 98.7822 12.757C98.7966 12.8758 98.7512 12.9467 98.6256 12.9533C98.596 12.9552 98.5669 12.9571 98.5373 12.9571C97.8206 12.9571 97.1042 12.9571 96.3871 12.9556C96.3391 12.9556 96.291 12.9435 96.2345 12.9361C96.1959 12.8462 96.1474 12.7597 96.1213 12.6677C95.9332 11.9985 95.0297 11.6971 94.3932 12.2724C94.0291 12.6014 94.0095 13.2241 94.4431 13.5626C94.7263 13.7838 95.0507 13.9153 95.3892 14.0193C96.0698 14.2283 96.7435 14.4563 97.3907 14.7598C98.236 15.1562 98.7754 15.8105 99.0043 16.6973C99.1074 17.0986 99.1513 17.5229 99.0849 17.9517C99.02 18.3696 98.9426 18.7755 98.7607 19.163C98.4584 19.8074 98.0007 20.3119 97.4363 20.7325C96.5712 21.3757 95.5819 21.5713 94.5425 21.451C93.1539 21.29 92.0719 20.6163 91.4374 19.3379C91.1807 18.8195 91.0816 18.2471 91.0264 17.6439Z" fill="white"/>
<path id="Vector_10" fill-rule="evenodd" clip-rule="evenodd" d="M47.042 21.5315C47.042 16.5166 47.042 11.519 47.042 6.50195C47.9829 6.50195 48.9099 6.50195 49.8568 6.50195C49.8568 11.506 49.8568 16.5034 49.8568 21.5013C49.6503 21.5652 47.6504 21.5896 47.042 21.5315Z" fill="white"/>
<path id="Vector_11" fill-rule="evenodd" clip-rule="evenodd" d="M132.975 11.912C132.598 12.0103 132.242 12.0774 131.905 12.1968C131.318 12.4049 130.855 12.7958 130.491 13.2939C130.009 13.9522 129.768 14.6886 129.773 15.5128C129.784 17.3672 129.776 19.2216 129.776 21.0765C129.776 21.1917 129.776 21.3068 129.776 21.447C129.651 21.4555 129.556 21.4675 129.461 21.4675C128.774 21.4693 128.087 21.4701 127.4 21.468C127.081 21.4672 127.073 21.4603 127.073 21.134C127.072 19.1618 127.046 17.189 127.081 15.2172C127.109 13.5675 127.8 12.1916 129.008 11.0793C129.597 10.5377 130.277 10.1471 131.036 9.87401C131.607 9.66877 132.193 9.60389 132.784 9.533C132.839 9.52651 132.897 9.54281 132.949 9.54787C133.013 9.77764 133.028 11.5707 132.975 11.912Z" fill="white"/>
</g>
</svg>
